<?xml version="1.0" encoding="utf-8"?>
<!-- Generator: Adobe Illustrator 23.0.3, SVG Export Plug-In . SVG Version: 6.00 Build 0)  -->
<svg version="1.1" id="Layer_1" xmlns="http://www.w3.org/2000/svg" xmlns:xlink="http://www.w3.org/1999/xlink" x="0px" y="0px"
	 viewBox="0 0 595.3 841.9" style="enable-background:new 0 0 595.3 841.9;" xml:space="preserve">
<style type="text/css">
	.st0{fill:#F8F4F2;stroke:url(#SVGID_1_);stroke-width:0.18;stroke-miterlimit:10;}
	.st1{fill:#D0D9DD;}
	.st2{fill:#D0D9DD;stroke:#010101;stroke-width:0.25;stroke-miterlimit:10;}
	.st3{fill:#F8F5F4;stroke:#050404;stroke-width:0.25;stroke-miterlimit:10;}
	.st4{fill:none;stroke:#010101;stroke-width:0.25;stroke-miterlimit:10;}
	.st5{fill:none;}
	.st6{opacity:0.81;}
	.st7{opacity:0.75;fill:#010101;}
	.st8{font-family:'PalatinoLinotype-Roman';}
	.st9{font-size:12.5802px;}
	.st10{font-size:11.0077px;}
	.st11{font-size:14.1527px;}
	.st12{opacity:0.75;}
	.st13{font-size:15.7252px;}
	.st14{fill:#010101;stroke:#232323;stroke-width:0.5;stroke-miterlimit:10;}
	.st15{fill:#010101;}
	.st16{font-family:'MyriadPro-Regular';}
	.st17{fill:#6D7F85;}
	.st18{font-family:'MVBoli';}
	.st19{font-size:34.5955px;}
</style>
<linearGradient id="SVGID_1_" gradientUnits="userSpaceOnUse" x1="167.5697" y1="419.3918" x2="593.3656" y2="419.3918">
	<stop  offset="0" style="stop-color:#FFFFFF"/>
	<stop  offset="1" style="stop-color:#000000"/>
</linearGradient>
<rect x="167.7" y="35.7" class="st0" width="425.6" height="767.4"/>
<rect x="1.1" y="35.4" class="st1" width="168.1" height="769"/>
<rect x="34.8" y="485.2" class="st2" width="106.9" height="22.3"/>
<rect x="315.2" y="117.7" class="st3" width="139.5" height="21"/>
<rect x="31.4" y="192.4" class="st4" width="106.9" height="22.3"/>
<rect x="19.6" y="336.8" class="st5" width="145.7" height="10.1"/>
<text transform="matrix(0.9806 0 0 1 19.625 345.8521)" class="st6"><tspan x="0" y="0" class="st7 st8 st9">ilyesedina10@gmail.com</tspan></text>
<rect x="47.3" y="268.6" class="st5" width="81.8" height="10.1"/>
<text transform="matrix(0.9806 0 0 1 47.335 277.7104)" class="st6"><tspan x="0" y="0" class="st7 st8 st9">+45 50324910</tspan></text>
<rect x="61.8" y="199.6" class="st5" width="48.7" height="16.9"/>
<text transform="matrix(0.9806 0 0 1 61.8398 208.7056)" class="st6"><tspan x="0" y="0" class="st7 st8 st9">Contact</tspan></text>
<rect x="48" y="409.5" class="st5" width="98.3" height="28.7"/>
<text transform="matrix(0.9806 0 0 1 47.9849 417.4111)" class="st6"><tspan x="0" y="0" class="st7 st8 st10">Hasselvangen 10,</tspan><tspan x="0" y="13.2" class="st7 st8 st10">       Esbjerg</tspan></text>
<rect x="52.6" y="490.3" class="st5" width="68.1" height="20.4"/>
<text transform="matrix(0.9806 0 0 1 52.6343 500.5713)" class="st6"><tspan x="0" y="0" class="st7 st8 st11">Education</tspan></text>
<g class="st12">
	<text transform="matrix(0.9806 0 0 1 35.7573 525.4795)"><tspan x="0" y="0" class="st7 st8 st10">  Business Academy</tspan><tspan x="0" y="13.2" class="st7 st8 st10">       Southwest</tspan><tspan x="0" y="26.4" class="st7 st8 st10">Multi Media Design, </tspan><tspan x="0" y="39.6" class="st7 st8 st10">Graduated May 2020</tspan></text>
</g>
<rect x="34.8" y="618.1" class="st2" width="106.9" height="19.5"/>
<rect x="66.5" y="621.7" class="st5" width="68.1" height="20.4"/>
<text transform="matrix(0.9806 0 0 1 66.5132 633.0762)" class="st6"><tspan x="0" y="0" class="st7 st8 st13">Skills</tspan></text>
<g class="st12">
	<rect x="41.2" y="653.6" class="st5" width="108" height="125"/>
	<text transform="matrix(0.9806 0 0 1 41.25 661.5332)"><tspan x="0" y="0" class="st7 st8 st10">-Webside Design</tspan><tspan x="0" y="13.2" class="st7 st8 st10">-Logo Creating</tspan><tspan x="0" y="26.4" class="st7 st8 st10">-Draving</tspan><tspan x="0" y="39.6" class="st7 st8 st10">-Webside with</tspan><tspan x="0" y="52.8" class="st7 st8 st10">         HTML</tspan><tspan x="0" y="66" class="st7 st8 st10">          CSS</tspan><tspan x="0" y="79.3" class="st7 st8 st10">            JS</tspan><tspan x="0" y="92.5" class="st7 st8 st10">         SEO</tspan></text>
</g>
<rect x="190.1" y="181.2" class="st5" width="157.8" height="38.4"/>
<text transform="matrix(0.9806 0 0 1 190.0708 191.4512)" class="st6"><tspan x="0" y="0" class="st7 st8 st11">PROFILE</tspan></text>
<line class="st14" x1="188.9" y1="194.9" x2="567.9" y2="194.9"/>
<rect x="190" y="319.9" class="st5" width="157.8" height="19.2"/>
<text transform="matrix(0.9806 0 0 1 189.9937 329.0132)" class="st6"><tspan x="0" y="0" class="st7 st8 st9">EDUCATION</tspan></text>
<line class="st14" x1="188.5" y1="333.6" x2="567.4" y2="333.6"/>
<rect x="310.5" y="356.9" class="st5" width="239.3" height="48.6"/>
<text transform="matrix(0.9806 0 0 1 310.4785 364.8794)"><tspan x="0" y="0" class="st7 st8 st10">Multi-Media Design, </tspan><tspan x="0" y="13.2" class="st7 st8 st10">          at Business Academy Southwest University</tspan><tspan x="0" y="26.4" class="st7 st8 st10">                                                 in Esbjerg, Denmark.</tspan></text>
<rect x="196.2" y="349.7" class="st5" width="76.6" height="12.2"/>
<text transform="matrix(0.9806 0 0 1 196.1611 357.6846)" class="st15 st8 st10">2018.August.</text>
<rect x="228.5" y="365" class="st5" width="48.6" height="12.2"/>
<text transform="matrix(0.9806 0 0 1 228.521 372.9385)" class="st15 st8 st10">2020.Maj</text>
<rect x="313.6" y="415.1" class="st5" width="236.2" height="40.9"/>
<text transform="matrix(0.9806 0 0 1 313.5625 423.0625)"><tspan x="0" y="0" class="st7 st8 st10">High School, </tspan><tspan x="0" y="13.2" class="st7 st8 st10">                at Tamasi Aron Theoretical High School</tspan><tspan x="0" y="26.4" class="st7 st8 st10">                               in Odorheiu Secuiesc, Romania.</tspan></text>
<rect x="197.7" y="411.1" class="st5" width="76.6" height="12.2"/>
<text transform="matrix(0.9806 0 0 1 197.7031 419.0127)" class="st15 st8 st10">2013.Sept.</text>
<rect x="230.1" y="426.3" class="st5" width="48.6" height="12.2"/>
<text transform="matrix(0.9806 0 0 1 230.0635 434.2666)" class="st15 st8 st10">2017.Maj</text>
<rect x="190.1" y="476.4" class="st5" width="157.8" height="19.2"/>
<text transform="matrix(0.9806 0 0 1 190.0708 485.5322)" class="st6"><tspan x="0" y="0" class="st7 st8 st9">LANGUAGES</tspan></text>
<line class="st14" x1="186.9" y1="490.7" x2="574" y2="490.7"/>
<rect x="190" y="212.7" class="st5" width="387.1" height="90"/>
<text transform="matrix(0.9806 0 0 1 189.9937 221.6357)"><tspan x="0" y="0" class="st15 st16 st9">I am a highly motivated multimedia designer with experience in frontend </tspan><tspan x="0" y="15.1" class="st15 st16 st9">development including website and graphic design, video recording and </tspan><tspan x="0" y="30.2" class="st15 st16 st9">editing. I have learned telemarketing and how to advertise our products, </tspan><tspan x="0" y="45.3" class="st15 st16 st9">according to making user experience researches. Main subjects as a </tspan><tspan x="0" y="60.4" class="st15 st16 st9">Multi-Media Design student: User Experience, Content Creation, Design </tspan><tspan x="0" y="75.5" class="st15 st16 st9">Development, Business.</tspan></text>
<g>
	
		<image style="overflow:visible;" width="854" height="1146" xlink:href="453074D8.png"  transform="matrix(0.24 0 0 0.24 -17.52 6.84)">
	</image>
</g>
<rect x="196.8" y="509" class="st5" width="81.9" height="22.2"/>
<text transform="matrix(0.9806 0 0 1 196.7969 516.8252)" class="st15 st16 st10">English</text>
<rect x="296.6" y="509.2" class="st5" width="82" height="18.8"/>
<text transform="matrix(0.9806 0 0 1 296.5518 517.1377)" class="st7 st8 st10"> Intermediate</text>
<rect x="419.2" y="509.7" class="st5" width="55.1" height="13.7"/>
<text transform="matrix(0.9806 0 0 1 419.1973 517.7002)" class="st7 st8 st10">(B1 level)</text>
<rect x="195.3" y="529.9" class="st5" width="99.2" height="20.4"/>
<text transform="matrix(0.9806 0 0 1 195.2549 537.7109)" class="st15 st16 st10">Romanian</text>
<rect x="302.7" y="528.7" class="st5" width="90.7" height="18.5"/>
<text transform="matrix(0.9806 0 0 1 302.7197 536.6533)" class="st7 st8 st10">Elementary</text>
<rect x="419.2" y="531.1" class="st5" width="55.1" height="13.7"/>
<text transform="matrix(0.9806 0 0 1 419.1973 539.0215)" class="st7 st8 st10">(A2 level)</text>
<rect x="195.3" y="571.2" class="st5" width="99.2" height="20.4"/>
<text transform="matrix(0.9806 0 0 1 195.2549 578.9932)" class="st15 st16 st10">Hungarian</text>
<rect x="305.5" y="572.1" class="st5" width="90.7" height="18.5"/>
<text transform="matrix(0.9806 0 0 1 305.4883 580.1084)" class="st7 st8 st10">Proficient</text>
<rect x="419.9" y="572.9" class="st5" width="55.1" height="13.7"/>
<text transform="matrix(0.9806 0 0 1 419.9385 580.9043)" class="st7 st8 st10">(C2 level)</text>
<rect x="196.8" y="551.1" class="st5" width="52.7" height="20.4"/>
<text transform="matrix(0.9806 0 0 1 196.7969 558.9453)" class="st15 st16 st10">Danish</text>
<rect x="305.8" y="551.1" class="st5" width="62" height="16.9"/>
<text transform="matrix(0.9806 0 0 1 305.8037 559.0898)" class="st7 st8 st10">Beginner</text>
<rect x="419.2" y="550.4" class="st5" width="55.1" height="13.7"/>
<text transform="matrix(0.9806 0 0 1 419.1973 558.3135)" class="st7 st8 st10">(A1 level)</text>
<rect x="191.1" y="619.1" class="st5" width="157.8" height="19.2"/>
<text transform="matrix(0.9806 0 0 1 191.1016 628.2412)" class="st6"><tspan x="0" y="0" class="st7 st8 st9">DIGITAL COMPETENCES</tspan></text>
<line class="st14" x1="187.9" y1="633.5" x2="575.1" y2="633.5"/>
<rect x="194.9" y="750.4" class="st5" width="371.1" height="38.4"/>
<text transform="matrix(0.9806 0 0 1 194.9063 758.3613)"><tspan x="0" y="0" class="st15 st8 st10">ECDL - computer skills good command of office suite (word processor, </tspan><tspan x="0" y="13.2" class="st15 st8 st10">spreadsheet, presentation software, etc.)</tspan></text>
<rect x="193.4" y="660.3" class="st5" width="354.7" height="38.4"/>
<text transform="matrix(0.9806 0 0 1 193.3643 668.3008)"><tspan x="0" y="0" class="st15 st8 st10">I have learned the basics of creating the website design in Visual Studio </tspan><tspan x="0" y="13.2" class="st15 st8 st10">Code by HTML5, CSS3, Js.</tspan></text>
<rect x="194.9" y="702.9" class="st5" width="354.7" height="38.4"/>
<text transform="matrix(0.9806 0 0 1 194.9063 710.832)"><tspan x="0" y="0" class="st15 st8 st10">Competence to use Adobe products such as Illustrator, Premiere Pro, </tspan><tspan x="0" y="13.2" class="st15 st8 st10">After effect, Experience Design, Photoshop, Indesign.</tspan></text>
<rect x="302.9" y="74.8" class="st5" width="175.6" height="37.6"/>
<text transform="matrix(0.9806 0 0 1 302.9082 101.3267)" class="st17 st18 st19">Edina Ilyes</text>
<rect x="324.3" y="122.8" class="st5" width="142.4" height="17.5"/>
<text transform="matrix(0.9806 0 0 1 324.3096 132.8018)" class="st15 st16 st11">Multi Media Designer</text>
<image style="overflow:visible;" width="512" height="512" xlink:href="portfolio/22-512.png"  transform="matrix(5.517448e-02 0 0 5.626344e-02 72.5811 370.5046)">
</image>
<image style="overflow:visible;opacity:0.85;" width="512" height="512" xlink:href="portfolio/phone_speaker-512.png"  transform="matrix(4.832778e-02 0 0 4.420881e-02 72.3711 234.2321)">
</image>
<image style="overflow:visible;" width="512" height="512" xlink:href="portfolio/E-mail_open-512.png"  transform="matrix(5.775172e-02 0 0 6.083742e-02 71.2616 297.8484)">
</image>
</svg>
